<svg width="771" height="618" fill="none" xmlns="http://www.w3.org/2000/svg"><path fill-rule="evenodd" clip-rule="evenodd" d="M813.493 122.133c-71.423-25.758-159.781-40.367-252.38-38.468-83.39 1.71-146.184 22.583-195.369 52.381-49.189 29.8-84.791 68.54-113.775 106.019-5.777 7.469-11.814 15.095-17.94 22.833-12.526 15.821-25.427 32.116-37.24 48.516-17.588 24.42-32.722 49.02-40.565 72.545-7.841 23.516-8.381 45.904 3.136 65.965 11.527 20.077 35.187 37.925 75.977 52.218 81.871 28.687 172.366 22.375 262.318 1.303 80.277-18.805 160.07-49.352 232.865-77.22 8.775-3.359 17.448-6.68 26.009-9.936 65.069-24.751 128.155-53.472 169.386-85.558 20.616-16.043 35.722-32.893 42.905-50.466 7.17-17.543 6.46-35.842-4.631-54.871-24.834-42.606-79.255-79.497-150.696-105.261zm.339-.941c71.53 25.796 126.214 62.794 151.221 105.699 11.245 19.293 11.982 37.918 4.693 55.752-7.278 17.805-22.539 34.786-43.217 50.877-41.358 32.184-104.565 60.949-169.645 85.704-8.558 3.255-17.231 6.576-26.007 9.935-72.787 27.865-152.647 58.438-232.994 77.26-90.035 21.091-180.748 27.444-262.877-1.333-40.897-14.331-64.816-32.29-76.513-52.664-11.706-20.391-11.114-43.098-3.218-66.779 7.893-23.672 23.099-48.372 40.703-72.813 11.825-16.419 24.752-32.746 37.286-48.578 6.123-7.733 12.152-15.348 17.914-22.799 29.022-37.527 64.711-76.373 114.048-106.263 49.342-29.892 112.309-50.812 195.867-52.525 92.71-1.9 181.191 12.724 252.739 38.527z" fill="#b0c59a"/><path fill-rule="evenodd" clip-rule="evenodd" d="M904.507 56.072C807.231 21.02 686.896 1.142 560.789 3.724 447.21 6.051 361.675 34.46 294.674 75.017c-67.005 40.561-115.498 93.288-154.971 144.288-7.863 10.159-16.082 20.531-24.424 31.059-17.057 21.528-34.628 43.703-50.715 66.02-23.952 33.228-44.572 66.715-55.261 98.749-10.686 32.024-11.431 62.541 4.285 89.894 15.726 27.369 47.99 51.672 103.551 71.125 111.526 39.047 234.788 30.451 357.287 1.779 109.321-25.589 217.984-67.154 317.104-105.069 11.949-4.57 23.759-9.088 35.415-13.518 88.603-33.676 174.525-72.76 230.695-116.432 28.08-21.836 48.68-44.785 58.47-68.735 9.79-23.921 8.82-48.876-6.31-74.813-33.85-58.022-108-108.232-205.293-143.292zm.339-.94c97.384 35.09 171.794 85.408 205.814 143.728 15.29 26.202 16.28 51.483 6.38 75.695-9.89 24.183-30.65 47.262-58.79 69.147-56.29 43.77-142.337 82.897-230.95 116.577-11.655 4.429-23.465 8.947-35.414 13.518-99.112 37.912-207.84 79.502-317.232 105.107-122.582 28.692-246.062 37.329-357.845-1.808-55.668-19.49-88.191-43.905-104.088-71.571-15.905-27.683-15.108-58.519-4.367-90.709 10.739-32.181 31.431-65.767 55.399-99.017 16.1-22.335 33.696-44.543 50.762-66.081 8.338-10.522 16.549-20.885 24.397-31.025 39.511-51.049 88.092-103.881 155.245-144.531C361.314 33.508 447.022 5.054 560.768 2.724 686.987.14 807.445 20.034 904.846 55.132z" fill="#b0c59a"/><path fill-rule="evenodd" clip-rule="evenodd" d="M762.183 159.155c-56.848-20.438-127.178-32.031-200.887-30.524-66.372 1.356-116.346 17.918-155.486 41.557-39.146 23.642-67.48 54.378-90.551 84.118-4.6 5.93-9.407 11.983-14.285 18.125-9.971 12.555-20.239 25.484-29.642 38.498-14.001 19.379-26.041 38.893-32.281 57.548-6.236 18.646-6.66 36.381 2.489 52.268 9.159 15.903 27.968 30.057 60.431 41.397 65.153 22.759 137.176 17.753 208.78 1.031 63.902-14.923 127.42-39.164 185.374-61.281 6.986-2.666 13.892-5.302 20.707-7.886 51.801-19.644 102.013-42.434 134.824-67.889 16.407-12.728 28.417-26.087 34.126-40.01 5.696-13.892 5.133-28.381-3.68-43.456-19.753-33.784-63.051-63.051-119.919-83.496zm.339-.941c56.955 20.476 100.516 49.85 120.443 83.932 8.968 15.34 9.558 30.156 3.742 44.341-5.804 14.155-17.969 27.645-34.438 40.421-32.938 25.552-83.271 48.386-135.083 68.033-6.813 2.584-13.718 5.219-20.705 7.885-57.946 22.115-121.53 46.381-185.503 61.321-71.687 16.741-143.927 21.788-209.336-1.061-32.57-11.377-51.639-25.642-60.969-41.842-9.339-16.217-8.862-34.272-2.57-53.084 6.289-18.803 18.402-38.416 32.419-57.816 9.415-13.033 19.709-25.994 29.688-38.56 4.874-6.137 9.674-12.18 14.259-18.091 23.109-29.789 51.531-60.63 90.824-84.361 39.298-23.734 89.444-40.341 155.983-41.701 73.819-1.509 144.272 10.1 201.246 30.583z" fill="#b0c59a"/><path fill-rule="evenodd" clip-rule="evenodd" d="M734.28 179.859c-48.78-17.573-109.132-27.542-172.383-26.247-56.95 1.167-99.827 15.407-133.407 35.73-33.586 20.325-57.897 46.75-77.694 72.324-3.95 5.101-8.076 10.307-12.262 15.589-8.557 10.797-17.368 21.914-25.437 33.105-12.014 16.664-22.343 33.439-27.695 49.472-5.348 16.024-5.708 31.254 2.131 44.894 7.848 13.656 23.973 25.821 51.826 35.57 55.897 19.566 117.694 15.264 179.141.885 54.838-12.833 109.346-33.678 159.085-52.699 5.996-2.293 11.922-4.56 17.771-6.782 44.457-16.893 87.541-36.49 115.692-58.374 14.077-10.943 24.374-22.423 29.266-34.38 4.88-11.927 4.399-24.365-3.154-37.311-16.94-29.034-54.082-54.196-102.88-71.776zm.338-.941c48.887 17.612 86.292 42.882 103.406 72.213 7.708 13.21 8.215 25.974 3.216 38.194-4.988 12.189-15.44 23.8-29.578 34.79-28.277 21.983-71.484 41.623-115.951 58.519-5.847 2.222-11.773 4.489-17.769 6.782-49.731 19.018-104.305 39.889-159.214 52.739-61.53 14.398-123.544 18.741-179.699-.915-27.96-9.787-44.345-22.063-52.363-36.016-8.029-13.969-7.616-29.519-2.212-45.709 5.4-16.18 15.802-33.054 27.832-49.74 8.082-11.209 16.918-22.358 25.483-33.166 4.183-5.277 8.301-10.474 12.236-15.556 19.835-25.621 44.234-52.152 77.967-72.567 33.738-20.418 76.788-34.704 133.905-35.873 63.362-1.298 123.836 8.687 172.741 26.305z" fill="#b0c59a"/><path fill-rule="evenodd" clip-rule="evenodd" d="M865.192 84.935c-85.824-30.96-191.995-48.519-303.26-46.237-100.206 2.055-175.668 27.146-234.777 62.967-59.114 35.823-101.896 82.392-136.724 127.44-6.938 8.975-14.191 18.138-21.551 27.437-15.051 19.016-30.553 38.602-44.746 58.314-21.133 29.35-39.323 58.925-48.752 87.213-9.426 28.278-10.08 55.216 3.776 79.359 13.866 24.159 42.319 45.62 91.337 62.801 98.39 34.486 207.138 26.896 315.22 1.57 96.456-22.603 192.331-59.317 279.79-92.808 10.543-4.038 20.964-8.028 31.249-11.942 78.178-29.746 153.985-64.268 203.536-102.839 24.77-19.286 42.94-39.55 51.58-60.692 8.63-21.113 7.77-43.138-5.57-66.034-29.85-51.235-95.265-95.581-181.108-126.549zm.339-.94c85.931 30.999 151.609 75.452 181.629 126.986 13.5 23.16 14.38 45.51 5.64 66.915-8.74 21.375-27.06 41.769-51.9 61.103-49.673 38.669-125.602 73.234-203.791 102.985a15807.246 15807.246 0 00-31.247 11.941c-87.451 33.489-183.392 70.229-279.918 92.847-108.166 25.346-217.131 32.977-315.779-1.599-49.126-17.218-77.838-38.791-91.874-63.247-14.045-24.472-13.339-51.73-3.858-80.174 9.478-28.434 27.741-58.108 48.889-87.48 14.207-19.73 29.734-39.349 44.793-58.375 7.357-9.295 14.601-18.448 21.525-27.404 34.865-45.096 77.736-91.771 136.997-127.683 59.266-35.916 134.901-61.054 235.275-63.112 111.376-2.284 217.669 15.29 303.619 46.297z" fill="#b0c59a"/><path d="M188 340c0 5.523-4.477 10-10 10s-10-4.477-10-10 4.477-10 10-10 10 4.477 10 10z" fill="#a4b791"/><path d="M488 10c0 5.523-4.477 10-10 10s-10-4.477-10-10 4.477-10 10-10 10 4.477 10 10z" fill="#fbeab1"/><path d="M281 603c0 8.284-6.716 15-15 15-8.284 0-15-6.716-15-15 0-8.284 6.716-15 15-15 8.284 0 15 6.716 15 15zm386-443c0 8.284-6.716 15-15 15-8.284 0-15-6.716-15-15 0-8.284 6.716-15 15-15 8.284 0 15 6.716 15 15z" fill="#b0c59a"/><path d="M361 266.5c0 8.008-6.492 14.5-14.5 14.5s-14.5-6.492-14.5-14.5 6.492-14.5 14.5-14.5 14.5 6.492 14.5 14.5z" fill="#bfd3a7"/><path d="M341 469.5c0 6.904-5.596 12.5-12.5 12.5s-12.5-5.596-12.5-12.5 5.596-12.5 12.5-12.5 12.5 5.596 12.5 12.5z" fill="#a4b791"/><path d="M116 258.5a8.5 8.5 0 11-17.001-.001A8.5 8.5 0 01116 258.5z" fill="#bfd3a7"/><path d="M135 238c0 6.075-4.925 11-11 11s-11-4.925-11-11 4.925-11 11-11 11 4.925 11 11z" fill="#a4b791"/><path d="M121 515.5a8.5 8.5 0 11-17.001-.001A8.5 8.5 0 01121 515.5z" fill="#fbeab1"/><path d="M606 477c0 6.075-4.925 11-11 11s-11-4.925-11-11 4.925-11 11-11 11 4.925 11 11zM584 83c0 6.075-4.925 11-11 11s-11-4.925-11-11 4.925-11 11-11 11 4.925 11 11z" fill="#bfd3a7"/><path d="M356 91c0 6.627-5.373 12-12 12s-12-5.373-12-12 5.373-12 12-12 12 5.373 12 12z" fill="#a4b791"/></svg>