<svg width="722" height="386" fill="none" xmlns="http://www.w3.org/2000/svg"><g opacity=".6"><path fill-rule="evenodd" clip-rule="evenodd" d="M522.491 77.226C476.636 60.716 419.9 51.35 360.436 52.567c-53.533 1.096-93.833 14.473-125.392 33.562-31.565 19.092-54.416 43.914-73.028 67.941-3.715 4.796-7.596 9.689-11.533 14.654-8.045 10.146-16.327 20.589-23.913 31.104-11.296 15.658-21.001 31.412-26.028 46.464-5.023 15.041-5.357 29.321 1.995 42.105 7.362 12.803 22.497 24.222 48.677 33.381 52.533 18.377 110.619 14.339 168.389.828 51.557-12.058 102.805-31.645 149.576-49.521 5.637-2.154 11.21-4.284 16.71-6.373 41.803-15.875 82.302-34.286 108.76-54.842 13.229-10.278 22.895-21.053 27.486-32.266 4.577-11.178 4.127-22.833-2.959-34.972-15.911-27.253-50.808-50.888-96.685-67.406zm.39-1.08c45.978 16.555 81.177 40.313 97.288 67.908 7.264 12.442 7.744 24.471 3.03 35.985-4.699 11.479-14.544 22.404-27.844 32.737-26.603 20.669-67.243 39.13-109.057 55.009-5.498 2.088-11.07 4.218-16.709 6.373-46.761 17.872-98.085 37.488-149.724 49.565-57.866 13.534-116.201 17.619-169.032-.862-26.302-9.201-41.735-20.749-49.293-33.893-7.57-13.162-7.175-27.808-2.088-43.039 5.083-15.221 14.871-31.089 26.185-46.772 7.601-10.536 15.912-21.016 23.967-31.174 3.933-4.959 7.804-9.841 11.502-14.615 18.656-24.083 41.607-49.026 73.342-68.22 31.741-19.199 72.239-32.629 125.964-33.728 59.592-1.22 116.469 8.165 162.469 24.727z" fill="#F8D663"/><path fill-rule="evenodd" clip-rule="evenodd" d="M580.964 34.854C518.499 12.382 441.219-.365 360.227 1.292c-72.929 1.49-127.838 19.701-170.844 45.692-43.012 25.994-74.144 59.787-99.495 92.487-5.056 6.521-10.338 13.177-15.698 19.931-10.957 13.805-22.24 28.02-32.572 42.331-15.384 21.307-28.613 42.762-35.468 63.271-6.852 20.499-7.317 39.992 2.732 57.454 10.06 17.48 30.723 33.04 66.393 45.508 71.586 25.023 150.723 19.52 229.404 1.133 70.217-16.408 140.012-43.062 203.696-67.382 7.677-2.932 15.264-5.83 22.754-8.671 56.922-21.6 112.094-46.658 148.146-74.645 18.027-13.994 31.221-28.681 37.491-43.985 6.257-15.269 5.639-31.193-4.042-47.763-21.701-37.14-69.273-69.32-131.76-91.8zm.39-1.08c62.588 22.516 110.462 54.818 132.363 92.301 9.859 16.873 10.507 33.172 4.113 48.776-6.379 15.57-19.751 30.406-37.849 44.456-36.198 28.1-91.51 53.208-148.444 74.811a12288.92 12288.92 0 00-22.752 8.671c-63.674 24.317-133.545 51-203.844 67.428-78.777 18.409-158.164 23.959-230.046-1.167-35.793-12.511-56.753-28.2-67.01-46.02-10.267-17.84-9.74-37.7-2.826-58.389 6.912-20.679 20.224-42.247 35.627-63.58 10.347-14.33 21.658-28.583 32.625-42.401 5.356-6.748 10.629-13.392 15.667-19.891 25.395-32.756 56.628-66.67 99.81-92.767 43.186-26.1 98.295-44.363 171.415-45.858 81.12-1.659 158.542 11.106 221.151 33.63z" fill="#F8D663"/><path fill-rule="evenodd" clip-rule="evenodd" d="M489.525 100.973c-36.492-13.098-81.646-20.53-128.973-19.564-42.6.87-74.663 11.481-99.769 26.62-25.113 15.142-43.294 34.829-58.107 53.893-2.959 3.808-6.049 7.693-9.184 11.634-6.405 8.051-12.995 16.335-19.033 24.679-8.991 12.424-16.708 24.915-20.704 36.844-3.993 11.918-4.252 23.212 1.578 33.319 5.841 10.126 17.86 19.176 38.689 26.44 41.794 14.575 88.011 11.375 133.994.654 41.037-9.568 81.828-25.11 119.064-39.297 4.488-1.71 8.925-3.401 13.304-5.059 33.278-12.598 65.506-27.206 86.555-43.508 10.525-8.152 18.202-16.688 21.845-25.559 3.629-8.837 3.275-18.048-2.349-27.65-12.646-21.594-40.397-40.34-76.91-53.446zm.389-1.08c36.614 13.142 64.667 32.01 77.514 53.947 5.801 9.906 6.187 19.492 2.42 28.664-3.753 9.138-11.608 17.824-22.204 26.031-21.194 16.415-53.563 31.071-86.853 43.675-4.377 1.657-8.813 3.347-13.302 5.057-37.226 14.185-78.094 29.756-119.212 39.343-46.078 10.743-92.545 13.99-134.634-.688-20.952-7.307-33.269-16.485-39.306-26.952-6.049-10.485-5.729-22.147-1.672-34.255 4.052-12.098 11.854-24.704 20.863-37.153 6.052-8.363 12.672-16.685 19.086-24.748 3.13-3.935 6.211-7.809 9.154-11.596 14.856-19.119 33.138-38.928 58.42-54.172 25.288-15.247 57.549-25.911 100.34-26.784 47.455-.968 92.75 6.481 129.386 19.631z" fill="#F8D663"/><path fill-rule="evenodd" clip-rule="evenodd" d="M471.599 114.253c-31.308-11.261-70.051-17.65-110.66-16.82-36.546.747-64.049 9.869-85.584 22.881-21.54 13.014-37.137 29.937-49.847 46.328-2.54 3.277-5.193 6.619-7.884 10.008-5.496 6.923-11.15 14.045-16.33 21.219-7.715 10.683-14.333 21.417-17.759 31.664-3.422 10.236-3.64 19.924 1.348 28.59 4.999 8.684 15.293 16.458 33.161 22.702 35.847 12.528 75.494 9.779 114.951.56 35.214-8.227 70.217-21.591 102.174-33.792 3.852-1.471 7.66-2.924 11.418-4.35 28.56-10.835 56.209-23.394 74.263-37.406 9.028-7.006 15.605-14.337 18.724-21.948 3.105-7.576 2.803-15.472-2.011-23.708-10.84-18.547-34.635-34.66-65.964-45.928zm.389-1.08c31.431 11.305 55.529 27.54 66.568 46.429 4.991 8.541 5.324 16.81 2.082 24.722-3.229 7.877-9.983 15.358-19.082 22.42-18.199 14.125-45.989 26.733-74.56 37.572a5426.744 5426.744 0 00-11.416 4.349c-31.949 12.198-67.028 25.592-102.323 33.838-39.552 9.24-79.449 12.036-115.593-.594-17.99-6.287-28.582-14.189-33.778-23.214-5.206-9.044-4.927-19.099-1.441-29.525 3.482-10.416 10.183-21.265 17.916-31.973 5.196-7.194 10.879-14.353 16.384-21.288 2.687-3.384 5.33-6.715 7.854-9.97 12.753-16.446 28.451-33.49 50.161-46.607 21.715-13.121 49.417-22.296 86.156-23.047 40.736-.833 79.62 5.576 111.072 16.888z" fill="#F8D663"/><path fill-rule="evenodd" clip-rule="evenodd" d="M555.706 53.367C500.598 33.52 432.418 22.262 360.962 23.725c-64.337 1.317-112.775 17.4-150.711 40.351-37.941 22.955-65.405 52.799-87.771 81.681-4.462 5.761-9.123 11.641-13.853 17.607-9.667 12.195-19.62 24.749-28.736 37.389-13.574 18.82-25.242 37.765-31.287 55.872-6.042 18.096-6.449 35.294 2.406 50.696 8.865 15.421 27.079 29.159 58.545 40.169 63.147 22.097 132.959 17.239 202.377.999 61.952-14.493 123.532-38.036 179.724-59.519 6.773-2.589 13.468-5.149 20.076-7.659 50.225-19.079 98.898-41.211 130.7-65.926 15.902-12.359 27.533-25.323 33.06-38.826 5.512-13.468 4.969-27.513-3.563-42.132-19.137-32.788-61.094-61.205-116.223-81.06zm.39-1.08c55.23 19.892 97.49 48.433 116.826 81.562 8.709 14.923 9.283 29.341 3.634 43.144-5.636 13.769-17.445 26.884-33.418 39.297-31.948 24.829-80.76 47.01-130.997 66.094-6.606 2.509-13.301 5.069-20.075 7.659-56.183 21.479-117.838 45.052-179.872 59.564-69.514 16.262-139.576 21.167-203.02-1.033-31.588-11.054-50.1-24.92-59.162-40.681-9.071-15.781-8.604-33.345-2.499-51.631 6.102-18.276 17.853-37.335 31.445-56.18 9.13-12.66 19.113-25.252 28.79-37.458 4.725-5.961 9.378-11.829 13.822-17.569 22.409-28.938 49.975-58.903 88.085-81.96 38.117-23.062 86.754-39.197 151.284-40.518 71.583-1.466 139.905 9.811 195.157 29.71z" fill="#F8D663"/><path d="M120.718 216.732c0 3.543-2.877 6.415-6.425 6.415s-6.425-2.872-6.425-6.415c0-3.542 2.877-6.414 6.425-6.414s6.425 2.872 6.425 6.414zm111.147-47.144c0 5.137-4.171 9.301-9.316 9.301-5.145 0-9.316-4.164-9.316-9.301 0-5.136 4.171-9.3 9.316-9.3 5.145 0 9.316 4.164 9.316 9.3zm-12.851 130.209c0 4.428-3.596 8.017-8.031 8.017-4.435 0-8.031-3.589-8.031-8.017 0-4.429 3.596-8.018 8.031-8.018 4.435 0 8.031 3.589 8.031 8.018zM74.458 164.457a5.457 5.457 0 01-5.46 5.452 5.457 5.457 0 01-5.462-5.452 5.457 5.457 0 015.461-5.452 5.457 5.457 0 015.461 5.452zm12.207-13.149c0 3.897-3.165 7.055-7.068 7.055-3.903 0-7.067-3.158-7.067-7.055s3.164-7.056 7.067-7.056c3.904 0 7.068 3.159 7.068 7.056zm-8.994 177.994a5.457 5.457 0 01-5.461 5.452 5.457 5.457 0 01-5.461-5.452 5.457 5.457 0 015.461-5.452 5.457 5.457 0 015.461 5.452zm311.596-24.695c0 3.896-3.164 7.055-7.067 7.055s-7.067-3.159-7.067-7.055c0-3.897 3.164-7.056 7.067-7.056s7.067 3.159 7.067 7.056zM228.653 57.019c0 4.25-3.452 7.697-7.71 7.697s-7.71-3.446-7.71-7.697c0-4.251 3.452-7.697 7.71-7.697s7.71 3.446 7.71 7.697z" fill="#7FA850"/></g></svg>