<svg width="628" height="336" fill="none" xmlns="http://www.w3.org/2000/svg"><g opacity=".6"><path fill-rule="evenodd" clip-rule="evenodd" d="M173.535 268.777c39.885 14.372 89.234 22.525 140.956 21.465 46.564-.953 81.616-12.598 109.067-29.214 27.456-16.619 47.331-38.226 63.52-59.141 3.232-4.174 6.607-8.434 10.031-12.755 6.999-8.832 14.202-17.922 20.8-27.075 9.826-13.63 18.267-27.343 22.639-40.446 4.37-13.093 4.66-25.522-1.735-36.65-6.403-11.145-19.568-21.085-42.339-29.057-45.694-15.998-96.217-12.482-146.466-.721-44.845 10.496-89.421 27.545-130.102 43.105-4.904 1.876-9.751 3.73-14.535 5.548-36.36 13.819-71.587 29.845-94.599 47.738-11.508 8.947-19.915 18.326-23.908 28.087-3.98 9.73-3.59 19.875 2.574 30.441 13.839 23.723 44.193 44.297 84.097 58.675zm-.339.94c-39.993-14.41-70.609-35.091-84.622-59.111-6.318-10.831-6.736-21.301-2.636-31.323 4.088-9.993 12.65-19.502 24.219-28.497 23.14-17.992 58.489-34.061 94.859-47.884 4.782-1.817 9.629-3.671 14.533-5.547 40.674-15.557 85.315-32.633 130.231-43.145 50.332-11.78 101.073-15.337 147.025.75 22.878 8.01 36.302 18.062 42.876 29.503 6.583 11.457 6.24 24.206 1.816 37.464-4.422 13.25-12.935 27.062-22.776 40.713-6.611 9.171-13.841 18.295-20.847 27.136-3.421 4.317-6.788 8.567-10.005 12.722-16.226 20.964-36.19 42.676-63.793 59.384-27.608 16.712-62.834 28.402-109.564 29.359-51.833 1.062-101.306-7.107-141.316-21.524z" fill="#F8D663"/><path fill-rule="evenodd" clip-rule="evenodd" d="M122.674 305.661c54.332 19.561 121.551 30.656 191.998 29.215 63.434-1.298 111.195-17.15 148.602-39.774 37.411-22.626 64.491-52.042 86.541-80.507 4.397-5.676 8.992-11.47 13.654-17.349 9.531-12.017 19.344-24.391 28.331-36.847 13.381-18.548 24.888-37.223 30.851-55.076 5.959-17.844 6.364-34.812-2.377-50.012-8.75-15.216-26.723-28.76-57.748-39.613-62.267-21.782-131.101-16.991-199.537-.987-61.076 14.283-121.784 37.485-177.176 58.655-6.678 2.552-13.278 5.074-19.792 7.548-49.511 18.801-97.5 40.614-128.858 64.976-15.68 12.181-27.157 24.965-32.61 38.286-5.443 13.292-4.905 27.153 3.516 41.576 18.875 32.33 60.254 60.341 114.605 79.909zm-.339.94c-54.44-19.6-96.08-47.717-115.13-80.345-8.575-14.688-9.14-28.875-3.578-42.458 5.549-13.553 17.18-26.468 32.922-38.697 31.485-24.46 79.595-46.316 129.117-65.121 6.512-2.473 13.112-4.996 19.79-7.548 55.384-21.167 116.158-44.394 177.305-58.694 68.52-16.024 137.571-20.855 200.095 1.017 31.133 10.89 49.364 24.546 58.285 40.058 8.93 15.53 8.473 32.817 2.459 50.826-6.012 18-17.592 36.775-30.989 55.344-9 12.474-18.839 24.881-28.377 36.909-4.659 5.874-9.246 11.657-13.628 17.314-22.088 28.513-49.255 58.035-86.815 80.751-37.564 22.719-85.497 38.616-149.098 39.918-70.559 1.444-137.9-9.668-192.358-29.274z" fill="#F8D663"/><path fill-rule="evenodd" clip-rule="evenodd" d="M202.207 248.106c31.741 11.401 71.016 17.87 112.182 17.03 37.053-.757 64.942-9.994 86.78-23.171 21.842-13.181 37.657-30.318 50.541-46.913 2.574-3.315 5.262-6.696 7.989-10.127 5.57-7.008 11.302-14.219 16.554-21.481 7.821-10.815 14.533-21.689 18.009-32.072 3.473-10.374 3.698-20.206-1.373-29.003-5.08-8.814-15.534-16.692-33.652-23.016-36.352-12.687-76.552-9.9-116.548-.569-35.694 8.329-71.175 21.858-103.563 34.207-3.904 1.489-7.763 2.96-11.572 4.403-28.945 10.967-56.978 23.682-75.286 37.873-9.154 7.096-15.832 14.526-19.001 22.248-3.157 7.692-2.848 15.71 2.043 24.069 11 18.797 35.138 35.114 66.897 46.522zm-.338.94c-31.847-11.439-56.248-27.863-67.422-46.958-5.046-8.623-5.382-16.967-2.105-24.952 3.264-7.954 10.097-15.515 19.313-22.659 18.435-14.288 46.589-27.046 75.545-38.017 3.807-1.442 7.666-2.914 11.57-4.403 32.38-12.347 67.927-25.9 103.692-34.246 40.079-9.351 80.496-12.178 117.105.6 18.224 6.36 28.938 14.349 34.189 23.459 5.261 9.128 4.983 19.279 1.454 29.819-3.525 10.531-10.31 21.503-18.146 32.34-5.265 7.28-11.023 14.524-16.602 21.542-2.722 3.426-5.403 6.798-7.962 10.094-12.922 16.642-28.824 33.885-50.814 47.155-21.996 13.272-50.057 22.555-87.277 23.315-41.276.843-80.674-5.642-112.54-17.089z" fill="#F8D663"/><path fill-rule="evenodd" clip-rule="evenodd" d="M217.801 236.547c27.232 9.801 60.93 15.364 96.252 14.641 31.788-.65 55.711-8.591 74.441-19.917 18.736-11.329 32.302-26.06 43.358-40.327a954.283 954.283 0 016.858-8.712c4.78-6.026 9.697-12.226 14.204-18.47 6.71-9.299 12.466-18.644 15.446-27.563 2.976-8.91 3.166-17.343-1.172-24.886-4.349-7.56-13.302-14.327-28.844-19.762-31.18-10.905-65.665-8.512-99.985-.488-30.629 7.162-61.075 18.795-88.872 29.416-3.35 1.28-6.662 2.545-9.931 3.786-24.842 9.431-48.891 20.363-64.595 32.56-7.852 6.099-13.572 12.48-16.285 19.105-2.701 6.595-2.438 13.468 1.749 20.638 9.428 16.145 30.125 30.17 57.376 39.979zm-.339.939c-27.339-9.84-48.299-23.972-57.901-40.415-4.342-7.434-4.631-14.632-1.811-21.519 2.808-6.857 8.683-13.368 16.597-19.516 15.831-12.295 40.002-23.27 64.854-32.705 3.267-1.24 6.578-2.505 9.929-3.786 27.789-10.618 58.301-22.277 89.001-29.454 34.403-8.044 69.106-10.478 100.543.517 15.649 5.472 24.862 12.351 29.381 20.207 4.528 7.872 4.285 16.624 1.253 25.7-3.028 9.067-8.857 18.51-15.583 27.831-4.519 6.263-9.463 12.495-14.251 18.531a994.345 994.345 0 00-6.832 8.678c-11.092 14.316-24.747 29.152-43.63 40.571-18.888 11.421-42.983 19.407-74.939 20.061-35.432.725-69.254-4.853-96.611-14.701z" fill="#F8D663"/><path fill-rule="evenodd" clip-rule="evenodd" d="M144.644 289.546c47.933 17.276 107.236 27.076 169.389 25.803 55.961-1.147 98.093-15.146 131.089-35.125 33.002-19.982 56.89-45.96 76.345-71.101 3.88-5.015 7.935-10.133 12.049-15.326 8.409-10.615 17.066-21.543 24.995-32.545 11.806-16.383 21.955-32.874 27.213-48.635 5.255-15.752 5.609-30.723-2.092-44.13-7.711-13.423-23.554-25.381-50.923-34.966-54.926-19.234-115.649-15.006-176.029-.87-53.886 12.617-107.449 33.11-156.325 51.81a8654.818 8654.818 0 01-17.463 6.667c-43.685 16.608-86.021 35.873-113.683 57.387-13.832 10.757-23.949 22.043-28.756 33.796-4.794 11.724-4.322 23.95 3.1 36.675 16.644 28.54 53.14 53.277 101.091 70.56zm-.339.94c-48.04-17.315-84.798-42.159-101.617-70.997-7.575-12.99-8.074-25.541-3.16-37.556 4.901-11.985 15.173-23.401 29.067-34.206 27.788-21.613 70.246-40.921 113.942-57.533a8804.85 8804.85 0 0017.461-6.666C248.866 64.83 302.495 44.31 356.452 31.679c60.463-14.156 121.404-18.426 176.588.9 27.476 9.621 43.578 21.69 51.459 35.41 7.891 13.737 7.484 29.026 2.174 44.944-5.307 15.908-15.529 32.498-27.351 48.902-7.941 11.02-16.624 21.981-25.041 32.607-4.111 5.188-8.157 10.296-12.023 15.292-19.492 25.19-43.468 51.273-76.617 71.344-33.155 20.075-75.459 34.12-131.587 35.27-62.265 1.275-121.691-8.541-169.749-25.862z" fill="#F8D663"/><path d="M522.999 147.342a5.586 5.586 0 015.589-5.584c3.086 0 5.588 2.5 5.588 5.584a5.586 5.586 0 01-5.588 5.583 5.586 5.586 0 01-5.589-5.583zm-96.676 41.037c0-4.471 3.628-8.095 8.103-8.095s8.103 3.624 8.103 8.095c0 4.472-3.628 8.096-8.103 8.096s-8.103-3.624-8.103-8.096zM437.5 75.037a6.983 6.983 0 016.985-6.979 6.983 6.983 0 016.986 6.98 6.983 6.983 0 01-6.986 6.978 6.983 6.983 0 01-6.985-6.979zm125.735 117.809a4.748 4.748 0 014.75-4.746 4.748 4.748 0 014.75 4.746 4.748 4.748 0 01-4.75 4.746 4.748 4.748 0 01-4.75-4.746zm-10.617 11.446a6.145 6.145 0 016.147-6.142 6.145 6.145 0 016.147 6.142 6.144 6.144 0 01-6.147 6.141 6.144 6.144 0 01-6.147-6.141zm7.823-154.938a4.748 4.748 0 014.75-4.746 4.748 4.748 0 014.75 4.746 4.748 4.748 0 01-4.75 4.746 4.748 4.748 0 01-4.75-4.746zM289.412 70.85a6.144 6.144 0 016.147-6.142 6.144 6.144 0 016.147 6.142 6.144 6.144 0 01-6.147 6.142 6.144 6.144 0 01-6.147-6.142zm139.706 215.517c0-3.7 3.002-6.7 6.705-6.7 3.704 0 6.706 3 6.706 6.7s-3.002 6.7-6.706 6.7c-3.703 0-6.705-3-6.705-6.7z" fill="#7FA850"/></g></svg>