<svg width="771" height="618" viewBox="0 0 771 618" fill="none" xmlns="http://www.w3.org/2000/svg">
<path fill-rule="evenodd" clip-rule="evenodd" d="M813.493 122.133C742.07 96.3751 653.712 81.7665 561.113 83.6647C477.723 85.3742 414.929 106.248 365.744 136.046C316.555 165.846 280.953 204.586 251.969 242.065C246.192 249.534 240.155 257.16 234.029 264.898C221.503 280.719 208.602 297.014 196.789 313.414C179.201 337.834 164.067 362.434 156.224 385.959C148.383 409.475 147.843 431.863 159.36 451.924C170.887 472.001 194.547 489.849 235.337 504.142C317.208 532.829 407.703 526.517 497.655 505.445C577.932 486.64 657.725 456.093 730.52 428.225C739.295 424.866 747.968 421.545 756.529 418.289C821.598 393.538 884.684 364.817 925.915 332.731C946.531 316.688 961.637 299.838 968.82 282.265C975.99 264.722 975.28 246.423 964.189 227.394C939.355 184.788 884.934 147.897 813.493 122.133ZM813.832 121.192C885.362 146.988 940.046 183.986 965.053 226.891C976.298 246.184 977.035 264.809 969.746 282.643C962.468 300.448 947.207 317.429 926.529 333.52C885.171 365.704 821.964 394.469 756.884 419.224C748.326 422.479 739.653 425.8 730.877 429.159C658.09 457.024 578.23 487.597 497.883 506.419C407.848 527.51 317.135 533.863 235.006 505.086C194.109 490.755 170.19 472.796 158.493 452.422C146.787 432.031 147.379 409.324 155.275 385.643C163.168 361.971 178.374 337.271 195.978 312.83C207.803 296.411 220.73 280.084 233.264 264.252C239.387 256.519 245.416 248.904 251.178 241.453C280.2 203.926 315.889 165.08 365.226 135.19C414.568 105.298 477.535 84.3778 561.093 82.665C653.803 80.7645 742.284 95.3891 813.832 121.192Z" fill="#b0c59a"/>
<path fill-rule="evenodd" clip-rule="evenodd" d="M904.507 56.0724C807.231 21.0197 686.896 1.14118 560.789 3.72418C447.21 6.05055 361.675 34.4591 294.674 75.0169C227.669 115.578 179.176 168.305 139.703 219.305C131.84 229.464 123.621 239.836 115.279 250.364C98.2216 271.892 80.6509 294.067 64.564 316.384C40.6122 349.612 19.9921 383.099 9.30286 415.133C-1.38326 447.157 -2.12806 477.674 13.5883 505.027C29.3142 532.396 61.5778 556.699 117.139 576.152C228.665 615.199 351.927 606.603 474.426 577.931C583.747 552.342 692.41 510.777 791.53 472.862C803.479 468.292 815.289 463.774 826.945 459.344C915.548 425.668 1001.47 386.584 1057.64 342.912C1085.72 321.076 1106.32 298.127 1116.11 274.177C1125.9 250.256 1124.93 225.301 1109.8 199.364C1075.95 141.342 1001.8 91.1317 904.507 56.0724ZM904.846 55.1316C1002.23 90.2227 1076.64 140.54 1110.66 198.86C1125.95 225.062 1126.94 250.343 1117.04 274.555C1107.15 298.738 1086.39 321.817 1058.25 343.702C1001.96 387.472 915.913 426.599 827.3 460.279C815.645 464.708 803.835 469.226 791.886 473.797C692.774 511.709 584.046 553.299 474.654 578.904C352.072 607.596 228.592 616.233 116.809 577.096C61.1405 557.606 28.6176 533.191 12.7213 505.525C-3.18449 477.842 -2.38713 447.006 8.35428 414.816C19.0926 382.635 39.7853 349.049 63.7528 315.799C79.8526 293.464 97.449 271.256 114.515 249.718C122.853 239.196 131.064 228.833 138.912 218.693C178.423 167.644 227.004 114.812 294.157 74.1615C361.314 33.5083 447.022 5.05418 560.768 2.72439C686.987 0.139121 807.445 20.0337 904.846 55.1316Z" fill="#b0c59a"/>
<path fill-rule="evenodd" clip-rule="evenodd" d="M762.183 159.155C705.335 138.717 635.005 127.124 561.296 128.631C494.924 129.987 444.95 146.549 405.81 170.188C366.664 193.83 338.33 224.566 315.259 254.306C310.659 260.236 305.852 266.289 300.974 272.431C291.003 284.986 280.735 297.915 271.332 310.929C257.331 330.308 245.291 349.822 239.051 368.477C232.815 387.123 232.391 404.858 241.54 420.745C250.699 436.648 269.508 450.802 301.971 462.142C367.124 484.901 439.147 479.895 510.751 463.173C574.653 448.25 638.171 424.009 696.125 401.892C703.111 399.226 710.017 396.59 716.832 394.006C768.633 374.362 818.845 351.572 851.656 326.117C868.063 313.389 880.073 300.03 885.782 286.107C891.478 272.215 890.915 257.726 882.102 242.651C862.349 208.867 819.051 179.6 762.183 159.155ZM762.522 158.214C819.477 178.69 863.038 208.064 882.965 242.146C891.933 257.486 892.523 272.302 886.707 286.487C880.903 300.642 868.738 314.132 852.269 326.908C819.331 352.46 768.998 375.294 717.186 394.941C710.373 397.525 703.468 400.16 696.481 402.826C638.535 424.941 574.951 449.207 510.978 464.147C439.291 480.888 367.051 485.935 301.642 463.086C269.072 451.709 250.003 437.444 240.673 421.244C231.334 405.027 231.811 386.972 238.103 368.16C244.392 349.357 256.505 329.744 270.522 310.344C279.937 297.311 290.231 284.35 300.21 271.784C305.084 265.647 309.884 259.604 314.469 253.693C337.578 223.904 366 193.063 405.293 169.332C444.591 145.598 494.737 128.991 561.276 127.631C635.095 126.122 705.548 137.731 762.522 158.214Z" fill="#b0c59a"/>
<path fill-rule="evenodd" clip-rule="evenodd" d="M734.28 179.859C685.5 162.286 625.148 152.317 561.897 153.612C504.947 154.779 462.07 169.019 428.49 189.342C394.904 209.667 370.593 236.092 350.796 261.666C346.846 266.767 342.72 271.973 338.534 277.255C329.977 288.052 321.166 299.169 313.097 310.36C301.083 327.024 290.754 343.799 285.402 359.832C280.054 375.856 279.694 391.086 287.533 404.726C295.381 418.382 311.506 430.547 339.359 440.296C395.256 459.862 457.053 455.56 518.5 441.181C573.338 428.348 627.846 407.503 677.585 388.482C683.581 386.189 689.507 383.922 695.356 381.7C739.813 364.807 782.897 345.21 811.048 323.326C825.125 312.383 835.422 300.903 840.314 288.946C845.194 277.019 844.713 264.581 837.16 251.635C820.22 222.601 783.078 197.439 734.28 179.859ZM734.618 178.918C783.505 196.53 820.91 221.8 838.024 251.131C845.732 264.341 846.239 277.105 841.24 289.325C836.252 301.514 825.8 313.125 811.662 324.115C783.385 346.098 740.178 365.738 695.711 382.634C689.864 384.856 683.938 387.123 677.942 389.416C628.211 408.434 573.637 429.305 518.728 442.155C457.198 456.553 395.184 460.896 339.029 441.24C311.069 431.453 294.684 419.177 286.666 405.224C278.637 391.255 279.05 375.705 284.454 359.515C289.854 343.335 300.256 326.461 312.286 309.775C320.368 298.566 329.204 287.417 337.769 276.609C341.952 271.332 346.07 266.135 350.005 261.053C369.84 235.432 394.239 208.901 427.972 188.486C461.71 168.068 504.76 153.782 561.877 152.613C625.239 151.315 685.713 161.3 734.618 178.918Z" fill="#b0c59a"/>
<path fill-rule="evenodd" clip-rule="evenodd" d="M865.192 84.9354C779.368 53.9749 673.197 36.4165 561.932 38.698C461.726 40.7528 386.264 65.8443 327.155 101.665C268.041 137.488 225.259 184.057 190.431 229.105C183.493 238.08 176.24 247.243 168.88 256.542C153.829 275.558 138.327 295.144 124.134 314.856C103.001 344.206 84.8107 373.781 75.3819 402.069C65.9562 430.347 65.302 457.285 79.1585 481.428C93.0243 505.587 121.477 527.048 170.495 544.229C268.885 578.715 377.633 571.125 485.715 545.799C582.171 523.196 678.046 486.482 765.505 452.991C776.048 448.953 786.469 444.963 796.754 441.049C874.932 411.303 950.739 376.781 1000.29 338.21C1025.06 318.924 1043.23 298.66 1051.87 277.518C1060.5 256.405 1059.64 234.38 1046.3 211.484C1016.45 160.249 951.035 115.903 865.192 84.9354ZM865.531 83.9947C951.462 114.994 1017.14 159.447 1047.16 210.981C1060.66 234.141 1061.54 256.491 1052.8 277.896C1044.06 299.271 1025.74 319.665 1000.9 338.999C951.227 377.668 875.298 412.233 797.109 441.984C786.826 445.897 776.406 449.887 765.862 453.925C678.411 487.414 582.47 524.154 485.944 546.772C377.778 572.118 268.813 579.749 170.165 545.173C121.039 527.955 92.3273 506.382 78.2912 481.926C64.2457 457.454 64.9523 430.196 74.4332 401.752C83.9111 373.318 102.174 343.644 123.322 314.272C137.529 294.542 153.056 274.923 168.115 255.897C175.472 246.602 182.716 237.449 189.64 228.493C224.505 183.397 267.376 136.722 326.637 100.81C385.903 64.8936 461.538 39.7564 561.912 37.6982C673.288 35.4144 779.581 52.9889 865.531 83.9947Z" fill="#b0c59a"/>
<path d="M188 340C188 345.523 183.523 350 178 350C172.477 350 168 345.523 168 340C168 334.477 172.477 330 178 330C183.523 330 188 334.477 188 340Z" fill="#a4b791"/>
<path d="M488 10C488 15.5228 483.523 20 478 20C472.477 20 468 15.5228 468 10C468 4.47715 472.477 0 478 0C483.523 0 488 4.47715 488 10Z" fill="#fbeab1"/>
<path d="M281 603C281 611.284 274.284 618 266 618C257.716 618 251 611.284 251 603C251 594.716 257.716 588 266 588C274.284 588 281 594.716 281 603Z" fill="#b0c59a"/>
<path d="M667 160C667 168.284 660.284 175 652 175C643.716 175 637 168.284 637 160C637 151.716 643.716 145 652 145C660.284 145 667 151.716 667 160Z" fill="#b0c59a"/>
<path d="M361 266.5C361 274.508 354.508 281 346.5 281C338.492 281 332 274.508 332 266.5C332 258.492 338.492 252 346.5 252C354.508 252 361 258.492 361 266.5Z" fill="#bfd3a7"/>
<path d="M341 469.5C341 476.404 335.404 482 328.5 482C321.596 482 316 476.404 316 469.5C316 462.596 321.596 457 328.5 457C335.404 457 341 462.596 341 469.5Z" fill="#a4b791"/>
<path d="M116 258.5C116 263.194 112.194 267 107.5 267C102.806 267 99 263.194 99 258.5C99 253.806 102.806 250 107.5 250C112.194 250 116 253.806 116 258.5Z" fill="#bfd3a7"/>
<path d="M135 238C135 244.075 130.075 249 124 249C117.925 249 113 244.075 113 238C113 231.925 117.925 227 124 227C130.075 227 135 231.925 135 238Z" fill="#a4b791"/>
<path d="M121 515.5C121 520.194 117.194 524 112.5 524C107.806 524 104 520.194 104 515.5C104 510.806 107.806 507 112.5 507C117.194 507 121 510.806 121 515.5Z" fill="#fbeab1"/>
<path d="M606 477C606 483.075 601.075 488 595 488C588.925 488 584 483.075 584 477C584 470.925 588.925 466 595 466C601.075 466 606 470.925 606 477Z" fill="#bfd3a7"/>
<path d="M584 83C584 89.0751 579.075 94 573 94C566.925 94 562 89.0751 562 83C562 76.9249 566.925 72 573 72C579.075 72 584 76.9249 584 83Z" fill="#bfd3a7"/>
<path d="M356 91C356 97.6274 350.627 103 344 103C337.373 103 332 97.6274 332 91C332 84.3726 337.373 79 344 79C350.627 79 356 84.3726 356 91Z" fill="#a4b791"/>
</svg>
