<svg width="722" height="386" viewBox="0 0 722 386" fill="none" xmlns="http://www.w3.org/2000/svg">
<g opacity="0.6">
<path fill-rule="evenodd" clip-rule="evenodd" d="M522.491 77.2264C476.636 60.7163 419.9 51.3502 360.436 52.5671C306.903 53.6627 266.603 67.0403 235.044 86.1288C203.479 105.221 180.628 130.043 162.016 154.07C158.301 158.866 154.42 163.759 150.483 168.724C142.438 178.87 134.156 189.313 126.57 199.828C115.274 215.486 105.569 231.24 100.542 246.292C95.5191 261.333 95.1854 275.613 102.537 288.397C109.899 301.2 125.034 312.619 151.214 321.778C203.747 340.155 261.833 336.117 319.603 322.606C371.16 310.548 422.408 290.961 469.179 273.085C474.816 270.931 480.389 268.801 485.889 266.712C527.692 250.837 568.191 232.426 594.649 211.87C607.878 201.592 617.544 190.817 622.135 179.604C626.712 168.426 626.262 156.771 619.176 144.632C603.265 117.379 568.368 93.7441 522.491 77.2264ZM522.881 76.1466C568.859 92.7009 604.058 116.459 620.169 144.054C627.433 156.496 627.913 168.525 623.199 180.039C618.5 191.518 608.655 202.443 595.355 212.776C568.752 233.445 528.112 251.906 486.298 267.785C480.8 269.873 475.228 272.003 469.589 274.158C422.828 292.03 371.504 311.646 319.865 323.723C261.999 337.257 203.664 341.342 150.833 322.861C124.531 313.66 109.098 302.112 101.54 288.968C93.9709 275.806 94.3649 261.16 99.4518 245.929C104.535 230.708 114.323 214.84 125.637 199.157C133.238 188.621 141.549 178.141 149.604 167.983C153.537 163.024 157.408 158.142 161.106 153.368C179.762 129.285 202.713 104.342 234.448 85.1471C266.189 65.9491 306.687 52.5191 360.412 51.4196C420.004 50.2 476.881 59.5846 522.881 76.1466Z" fill="#F8D663"/>
<path fill-rule="evenodd" clip-rule="evenodd" d="M580.964 34.8538C518.499 12.3818 441.219 -0.364666 360.227 1.29155C287.298 2.78286 232.389 20.9931 189.383 46.9836C146.371 72.9775 115.239 106.771 89.8876 139.471C84.8323 145.992 79.5499 152.648 74.1897 159.402C63.2327 173.207 51.9506 187.422 41.6184 201.733C26.2341 223.04 13.0047 244.495 6.14971 265.004C-0.701767 285.503 -1.16695 304.996 8.88233 322.458C18.9425 339.938 39.6051 355.498 75.2745 367.966C146.861 392.989 225.998 387.486 304.679 369.099C374.896 352.691 444.691 326.037 508.375 301.717C516.052 298.785 523.639 295.887 531.129 293.046C588.051 271.446 643.223 246.388 679.275 218.401C697.302 204.407 710.496 189.72 716.766 174.416C723.023 159.147 722.405 143.223 712.724 126.653C691.023 89.5124 643.451 57.3335 580.964 34.8538ZM581.354 33.7739C643.942 56.2902 691.816 88.5921 713.717 126.075C723.576 142.948 724.224 159.247 717.83 174.851C711.451 190.421 698.079 205.257 679.981 219.307C643.783 247.407 588.471 272.515 531.537 294.118C524.05 296.96 516.463 299.857 508.785 302.789C445.111 327.106 375.24 353.789 304.941 370.217C226.164 388.626 146.777 394.176 74.8946 369.05C39.1023 356.539 18.1416 340.85 7.88548 323.03C-2.38151 305.19 -1.8559 285.33 5.05915 264.641C11.9707 243.962 25.2835 222.394 40.6858 201.061C51.0327 186.731 62.3445 172.478 73.3109 158.66C78.6666 151.912 83.94 145.268 88.9784 138.769C114.373 106.013 145.606 72.0981 188.788 46.0017C231.974 19.9018 287.083 1.63922 360.203 0.143981C441.323 -1.51484 518.745 11.25 581.354 33.7739Z" fill="#F8D663"/>
<path fill-rule="evenodd" clip-rule="evenodd" d="M489.525 100.973C453.033 87.8754 407.879 80.4438 360.552 81.4093C317.952 82.2785 285.889 92.8903 260.783 108.029C235.67 123.171 217.489 142.858 202.676 161.922C199.717 165.73 196.627 169.615 193.492 173.556C187.087 181.607 180.497 189.891 174.459 198.235C165.468 210.659 157.751 223.15 153.755 235.079C149.762 246.997 149.503 258.291 155.333 268.398C161.174 278.524 173.193 287.574 194.022 294.838C235.816 309.413 282.033 306.213 328.016 295.492C369.053 285.924 409.844 270.382 447.08 256.195C451.568 254.485 456.005 252.794 460.384 251.136C493.662 238.538 525.89 223.93 546.939 207.628C557.464 199.476 565.141 190.94 568.784 182.069C572.413 173.232 572.059 164.021 566.435 154.419C553.789 132.825 526.038 114.079 489.525 100.973ZM489.914 99.8932C526.528 113.035 554.581 131.903 567.428 153.84C573.229 163.746 573.615 173.332 569.848 182.504C566.095 191.642 558.24 200.328 547.644 208.535C526.45 224.95 494.081 239.606 460.791 252.21C456.414 253.867 451.978 255.557 447.489 257.267C410.263 271.452 369.395 287.023 328.277 296.61C282.199 307.353 235.732 310.6 193.643 295.922C172.691 288.615 160.374 279.437 154.337 268.97C148.288 258.485 148.608 246.823 152.665 234.715C156.717 222.617 164.519 210.011 173.528 197.562C179.58 189.199 186.2 180.877 192.614 172.814C195.744 168.879 198.825 165.005 201.768 161.218C216.624 142.099 234.906 122.29 260.188 107.046C285.476 91.7988 317.737 81.1348 360.528 80.2618C407.983 79.2936 453.278 86.7435 489.914 99.8932Z" fill="#F8D663"/>
<path fill-rule="evenodd" clip-rule="evenodd" d="M471.599 114.253C440.291 102.992 401.548 96.6025 360.939 97.4327C324.393 98.1799 296.89 107.302 275.355 120.314C253.815 133.328 238.218 150.251 225.508 166.642C222.968 169.919 220.315 173.261 217.624 176.65C212.128 183.573 206.474 190.695 201.294 197.869C193.579 208.552 186.961 219.286 183.535 229.533C180.113 239.769 179.895 249.457 184.883 258.123C189.882 266.807 200.176 274.581 218.044 280.825C253.891 293.353 293.538 290.604 332.995 281.385C368.209 273.158 403.212 259.794 435.169 247.593C439.021 246.122 442.829 244.669 446.587 243.243C475.147 232.408 502.796 219.849 520.85 205.837C529.878 198.831 536.455 191.5 539.574 183.889C542.679 176.313 542.377 168.417 537.563 160.181C526.723 141.634 502.928 125.521 471.599 114.253ZM471.988 113.173C503.419 124.478 527.517 140.713 538.556 159.602C543.547 168.143 543.88 176.412 540.638 184.324C537.409 192.201 530.655 199.682 521.556 206.744C503.357 220.869 475.567 233.477 446.996 244.316C443.239 245.741 439.432 247.194 435.58 248.665C403.631 260.863 368.552 274.257 333.257 282.503C293.705 291.743 253.808 294.539 217.664 281.909C199.674 275.622 189.082 267.72 183.886 258.695C178.68 249.651 178.959 239.596 182.445 229.17C185.927 218.754 192.628 207.905 200.361 197.197C205.557 190.003 211.24 182.844 216.745 175.909C219.432 172.525 222.075 169.194 224.599 165.939C237.352 149.493 253.05 132.449 274.76 119.332C296.475 106.211 324.177 97.0363 360.916 96.2852C401.652 95.4524 440.536 101.861 471.988 113.173Z" fill="#F8D663"/>
<path fill-rule="evenodd" clip-rule="evenodd" d="M555.706 53.3671C500.598 33.5199 432.418 22.2616 360.962 23.7245C296.625 25.0416 248.187 41.1242 210.251 64.076C172.31 87.0312 144.846 116.875 122.48 145.757C118.018 151.518 113.357 157.398 108.627 163.364C98.9595 175.559 89.0064 188.113 79.8907 200.753C66.3174 219.573 54.6492 238.518 48.6039 256.625C42.5622 274.721 42.1552 291.919 51.0096 307.321C59.8748 322.742 78.089 336.48 109.555 347.49C172.702 369.587 242.514 364.729 311.932 348.489C373.884 333.996 435.464 310.453 491.656 288.97C498.429 286.381 505.124 283.821 511.732 281.311C561.957 262.232 610.63 240.1 642.432 215.385C658.334 203.026 669.965 190.062 675.492 176.559C681.004 163.091 680.461 149.046 671.929 134.427C652.792 101.639 610.835 73.222 555.706 53.3671ZM556.096 52.2874C611.326 72.1789 653.586 100.72 672.922 133.849C681.631 148.772 682.205 163.19 676.556 176.993C670.92 190.762 659.111 203.877 643.138 216.29C611.19 241.119 562.378 263.3 512.141 282.384C505.535 284.893 498.84 287.453 492.066 290.043C435.883 311.522 374.228 335.095 312.194 349.607C242.68 365.869 172.618 370.774 109.174 348.574C77.5857 337.52 59.0734 323.654 50.0125 307.893C40.9408 292.112 41.4081 274.548 47.5133 256.262C53.6149 237.986 65.3664 218.927 78.9577 200.082C88.0882 187.422 98.0709 174.83 107.748 162.624C112.473 156.663 117.126 150.795 121.57 145.055C143.979 116.117 171.545 86.1522 209.655 63.0944C247.772 40.033 296.409 23.8979 360.939 22.5769C432.522 21.1115 500.844 32.3882 556.096 52.2874Z" fill="#F8D663"/>
<path d="M120.718 216.732C120.718 220.275 117.841 223.147 114.293 223.147C110.745 223.147 107.868 220.275 107.868 216.732C107.868 213.19 110.745 210.318 114.293 210.318C117.841 210.318 120.718 213.19 120.718 216.732Z" fill="#7FA850"/>
<path d="M231.865 169.588C231.865 174.725 227.694 178.889 222.549 178.889C217.404 178.889 213.233 174.725 213.233 169.588C213.233 164.452 217.404 160.288 222.549 160.288C227.694 160.288 231.865 164.452 231.865 169.588Z" fill="#7FA850"/>
<path d="M219.014 299.797C219.014 304.225 215.418 307.814 210.983 307.814C206.548 307.814 202.952 304.225 202.952 299.797C202.952 295.368 206.548 291.779 210.983 291.779C215.418 291.779 219.014 295.368 219.014 299.797Z" fill="#7FA850"/>
<path d="M74.4581 164.457C74.4581 167.468 72.0131 169.909 68.9971 169.909C65.9811 169.909 63.5361 167.468 63.5361 164.457C63.5361 161.446 65.9811 159.005 68.9971 159.005C72.0131 159.005 74.4581 161.446 74.4581 164.457Z" fill="#7FA850"/>
<path d="M86.6646 151.308C86.6646 155.205 83.5005 158.363 79.5974 158.363C75.6943 158.363 72.5303 155.205 72.5303 151.308C72.5303 147.411 75.6943 144.252 79.5974 144.252C83.5005 144.252 86.6646 147.411 86.6646 151.308Z" fill="#7FA850"/>
<path d="M77.671 329.302C77.671 332.313 75.226 334.754 72.21 334.754C69.194 334.754 66.749 332.313 66.749 329.302C66.749 326.291 69.194 323.85 72.21 323.85C75.226 323.85 77.671 326.291 77.671 329.302Z" fill="#7FA850"/>
<path d="M389.267 304.607C389.267 308.503 386.103 311.662 382.2 311.662C378.297 311.662 375.133 308.503 375.133 304.607C375.133 300.71 378.297 297.551 382.2 297.551C386.103 297.551 389.267 300.71 389.267 304.607Z" fill="#7FA850"/>
<path d="M228.653 57.0186C228.653 61.2695 225.201 64.7156 220.943 64.7156C216.685 64.7156 213.233 61.2695 213.233 57.0186C213.233 52.7676 216.685 49.3215 220.943 49.3215C225.201 49.3215 228.653 52.7676 228.653 57.0186Z" fill="#7FA850"/>
</g>
</svg>
