<svg width="628" height="336" viewBox="0 0 628 336" fill="none" xmlns="http://www.w3.org/2000/svg">
<g opacity="0.6">
<path fill-rule="evenodd" clip-rule="evenodd" d="M173.535 268.777C213.42 283.149 262.769 291.302 314.491 290.242C361.055 289.289 396.107 277.644 423.558 261.028C451.014 244.409 470.889 222.802 487.078 201.887C490.31 197.713 493.685 193.453 497.109 189.132C504.108 180.3 511.311 171.21 517.909 162.057C527.735 148.427 536.176 134.714 540.548 121.611C544.918 108.518 545.208 96.0886 538.813 84.9605C532.41 73.816 519.245 63.8755 496.474 55.9036C450.78 39.9064 400.257 43.4218 350.008 55.1826C305.163 65.6786 260.587 82.7283 219.906 98.2885C215.002 100.164 210.155 102.018 205.371 103.836C169.011 117.655 133.784 133.681 110.772 151.574C99.2645 160.521 90.8567 169.9 86.8638 179.661C82.8831 189.391 83.2741 199.536 89.438 210.102C103.277 233.825 133.631 254.399 173.535 268.777ZM173.196 269.717C133.203 255.307 102.587 234.626 88.574 210.606C82.2559 199.775 81.8382 189.305 85.9381 179.283C90.026 169.29 98.5884 159.781 110.157 150.786C133.297 132.794 168.646 116.725 205.016 102.902C209.798 101.085 214.645 99.2309 219.549 97.355C260.223 81.7976 304.864 64.7224 349.78 54.2098C400.112 42.4295 450.853 38.8732 496.805 54.9607C519.683 62.97 533.107 73.0222 539.681 84.463C546.264 95.9203 545.921 108.669 541.497 121.927C537.075 135.177 528.562 148.989 518.721 162.64C512.11 171.811 504.88 180.935 497.874 189.776C494.453 194.093 491.086 198.343 487.869 202.498C471.643 223.462 451.679 245.174 424.076 261.882C396.468 278.594 361.242 290.284 314.512 291.241C262.679 292.303 213.206 284.134 173.196 269.717Z" fill="#F8D663"/>
<path fill-rule="evenodd" clip-rule="evenodd" d="M122.674 305.661C177.006 325.222 244.225 336.317 314.672 334.876C378.106 333.578 425.867 317.726 463.274 295.102C500.685 272.476 527.765 243.06 549.815 214.595C554.212 208.919 558.807 203.125 563.469 197.246C573 185.229 582.813 172.855 591.8 160.399C605.181 141.851 616.688 123.176 622.651 105.323C628.61 87.4791 629.015 70.5108 620.274 55.3113C611.524 40.0953 593.551 26.5505 562.526 15.6977C500.259 -6.08353 431.425 -1.29337 362.989 14.7113C301.913 28.9945 241.205 52.1959 185.813 73.3657C179.135 75.9176 172.535 78.44 166.021 80.9137C116.51 99.7153 68.5209 121.528 37.1625 145.89C21.4827 158.071 10.0063 170.855 4.55231 184.176C-0.889587 197.468 -0.352295 211.329 8.06854 225.752C26.9443 258.082 68.3229 286.093 122.674 305.661ZM122.335 306.601C67.8957 287.001 26.2543 258.884 7.20477 226.256C-1.37048 211.568 -1.93457 197.381 3.62671 183.798C9.17584 170.245 20.8069 157.33 36.5487 145.101C68.0336 120.641 116.144 98.7852 165.666 79.9798C172.178 77.5067 178.778 74.9845 185.456 72.4323C240.84 51.2652 301.614 28.0382 362.761 13.7385C431.281 -2.28568 500.332 -7.1167 562.856 14.7546C593.989 25.6449 612.22 39.3011 621.141 54.8135C630.071 70.3423 629.614 87.6298 623.6 105.639C617.588 123.639 606.008 142.414 592.611 160.983C583.611 173.457 573.772 185.864 564.234 197.892C559.575 203.766 554.988 209.549 550.606 215.206C528.518 243.719 501.351 273.241 463.791 295.957C426.227 318.676 378.294 334.573 314.693 335.875C244.134 337.319 176.793 326.207 122.335 306.601Z" fill="#F8D663"/>
<path fill-rule="evenodd" clip-rule="evenodd" d="M202.207 248.106C233.948 259.507 273.223 265.976 314.389 265.136C351.442 264.379 379.331 255.142 401.169 241.965C423.011 228.784 438.826 211.647 451.71 195.052C454.284 191.737 456.972 188.356 459.699 184.925C465.269 177.917 471.001 170.706 476.253 163.444C484.074 152.629 490.786 141.755 494.262 131.372C497.735 120.998 497.96 111.166 492.889 102.369C487.809 93.5546 477.355 85.6766 459.237 79.3534C422.885 66.6663 382.685 69.4522 342.689 78.7842C306.995 87.1127 271.514 100.642 239.126 112.991C235.222 114.48 231.363 115.951 227.554 117.394C198.609 128.361 170.576 141.076 152.268 155.267C143.114 162.363 136.436 169.793 133.267 177.515C130.11 185.207 130.419 193.225 135.31 201.584C146.31 220.381 170.448 236.698 202.207 248.106ZM201.869 249.046C170.022 237.607 145.621 221.183 134.447 202.088C129.401 193.465 129.065 185.121 132.342 177.136C135.606 169.182 142.439 161.621 151.655 154.477C170.09 140.189 198.244 127.431 227.2 116.46C231.007 115.018 234.866 113.546 238.77 112.057C271.15 99.7105 306.697 86.1562 342.462 77.8113C382.541 68.4598 422.958 65.6333 459.567 78.4102C477.791 84.7705 488.505 92.7597 493.756 101.87C499.017 110.998 498.739 121.149 495.21 131.689C491.685 142.22 484.9 153.192 477.064 164.029C471.799 171.309 466.041 178.553 460.462 185.571C457.74 188.997 455.059 192.369 452.5 195.665C439.578 212.307 423.676 229.55 401.686 242.82C379.69 256.092 351.629 265.375 314.409 266.135C273.133 266.978 233.735 260.493 201.869 249.046Z" fill="#F8D663"/>
<path fill-rule="evenodd" clip-rule="evenodd" d="M217.801 236.547C245.033 246.348 278.731 251.911 314.053 251.188C345.841 250.538 369.764 242.597 388.494 231.271C407.23 219.942 420.796 205.211 431.852 190.944C434.062 188.091 436.369 185.182 438.71 182.232C443.49 176.206 448.407 170.006 452.914 163.762C459.624 154.463 465.38 145.118 468.36 136.199C471.336 127.289 471.526 118.856 467.188 111.313C462.839 103.753 453.886 96.986 438.344 91.5508C407.164 80.6463 372.679 83.0392 338.359 91.0634C307.73 98.2247 277.284 109.858 249.487 120.479C246.137 121.759 242.825 123.024 239.556 124.265C214.714 133.696 190.665 144.628 174.961 156.825C167.109 162.924 161.389 169.305 158.676 175.93C155.975 182.525 156.238 189.398 160.425 196.568C169.853 212.713 190.55 226.738 217.801 236.547ZM217.462 237.486C190.123 227.646 169.163 213.514 159.561 197.071C155.219 189.637 154.93 182.439 157.75 175.552C160.558 168.695 166.433 162.184 174.347 156.036C190.178 143.741 214.349 132.766 239.201 123.331C242.468 122.091 245.779 120.826 249.13 119.545C276.919 108.927 307.431 97.2684 338.131 90.0906C372.534 82.0469 407.237 79.6132 438.674 90.6078C454.323 96.0804 463.536 102.959 468.055 110.815C472.583 118.687 472.34 127.439 469.308 136.515C466.28 145.582 460.451 155.025 453.725 164.346C449.206 170.609 444.262 176.841 439.474 182.877C437.137 185.823 434.838 188.722 432.642 191.555C421.55 205.871 407.895 220.707 389.012 232.126C370.124 243.547 346.029 251.533 314.073 252.187C278.641 252.912 244.819 247.334 217.462 237.486Z" fill="#F8D663"/>
<path fill-rule="evenodd" clip-rule="evenodd" d="M144.644 289.546C192.577 306.822 251.88 316.622 314.033 315.349C369.994 314.202 412.126 300.203 445.122 280.224C478.124 260.242 502.012 234.264 521.467 209.123C525.347 204.108 529.402 198.99 533.516 193.797C541.925 183.182 550.582 172.254 558.511 161.252C570.317 144.869 580.466 128.378 585.724 112.617C590.979 96.8645 591.333 81.8943 583.632 68.4871C575.921 55.0636 560.078 43.1057 532.709 33.5212C477.783 14.2866 417.06 18.5154 356.68 32.6518C302.794 45.2676 249.231 65.7608 200.355 84.461C194.464 86.7151 188.64 88.9431 182.892 91.1282C139.207 107.736 96.8706 127.001 69.209 148.515C55.3775 159.272 45.2603 170.558 40.4534 182.311C35.6587 194.035 36.1312 206.261 43.5524 218.986C60.1973 247.526 96.6925 272.263 144.644 289.546ZM144.305 290.486C96.2647 273.171 59.507 248.327 42.6884 219.489C35.113 206.499 34.6138 193.948 39.5277 181.933C44.4294 169.948 54.7013 158.532 68.5947 147.727C96.383 126.114 138.841 106.806 182.537 90.1944C188.283 88.0099 194.106 85.782 199.998 83.5276C248.866 64.8302 302.495 44.3114 356.452 31.679C416.915 17.5232 477.856 13.2533 533.04 32.5783C560.516 42.2003 576.618 54.2699 584.499 67.9898C592.39 81.726 591.983 97.0151 586.673 112.933C581.366 128.841 571.144 145.431 559.322 161.835C551.381 172.855 542.698 183.816 534.281 194.442C530.17 199.63 526.124 204.738 522.258 209.734C502.766 234.924 478.79 261.007 445.641 281.078C412.486 301.153 370.182 315.198 314.054 316.348C251.789 317.623 192.363 307.807 144.305 290.486Z" fill="#F8D663"/>
<path d="M522.999 147.342C522.999 144.258 525.501 141.758 528.588 141.758C531.674 141.758 534.176 144.258 534.176 147.342C534.176 150.425 531.674 152.925 528.588 152.925C525.501 152.925 522.999 150.425 522.999 147.342Z" fill="#7FA850"/>
<path d="M426.323 188.379C426.323 183.908 429.951 180.284 434.426 180.284C438.901 180.284 442.529 183.908 442.529 188.379C442.529 192.851 438.901 196.475 434.426 196.475C429.951 196.475 426.323 192.851 426.323 188.379Z" fill="#7FA850"/>
<path d="M437.5 75.0372C437.5 71.1827 440.628 68.058 444.485 68.058C448.343 68.058 451.471 71.1827 451.471 75.0372C451.471 78.8917 448.343 82.0164 444.485 82.0164C440.628 82.0164 437.5 78.8917 437.5 75.0372Z" fill="#7FA850"/>
<path d="M563.235 192.846C563.235 190.225 565.362 188.1 567.985 188.1C570.609 188.1 572.735 190.225 572.735 192.846C572.735 195.467 570.609 197.592 567.985 197.592C565.362 197.592 563.235 195.467 563.235 192.846Z" fill="#7FA850"/>
<path d="M552.618 204.292C552.618 200.9 555.37 198.15 558.765 198.15C562.16 198.15 564.912 200.9 564.912 204.292C564.912 207.684 562.16 210.433 558.765 210.433C555.37 210.433 552.618 207.684 552.618 204.292Z" fill="#7FA850"/>
<path d="M560.441 49.3538C560.441 46.7327 562.568 44.6079 565.191 44.6079C567.815 44.6079 569.941 46.7327 569.941 49.3538C569.941 51.9748 567.815 54.0996 565.191 54.0996C562.568 54.0996 560.441 51.9748 560.441 49.3538Z" fill="#7FA850"/>
<path d="M289.412 70.85C289.412 67.4581 292.164 64.7083 295.559 64.7083C298.954 64.7083 301.706 67.4581 301.706 70.85C301.706 74.242 298.954 76.9917 295.559 76.9917C292.164 76.9917 289.412 74.242 289.412 70.85Z" fill="#7FA850"/>
<path d="M429.118 286.367C429.118 282.667 432.12 279.667 435.823 279.667C439.527 279.667 442.529 282.667 442.529 286.367C442.529 290.067 439.527 293.067 435.823 293.067C432.12 293.067 429.118 290.067 429.118 286.367Z" fill="#7FA850"/>
</g>
</svg>
